<svg id="Layer_1" data-name="Layer 1" xmlns="http://www.w3.org/2000/svg" xmlns:xlink="http://www.w3.org/1999/xlink" viewBox="0 0 492.9 379.18"><defs><style>.cls-1{fill:url(#linear-gradient);}</style><linearGradient id="linear-gradient" x1="246.45" y1="381.18" x2="246.45" y2="2" gradientTransform="matrix(1, 0, 0, -1, 0, 381.18)" gradientUnits="userSpaceOnUse"><stop offset="0" stop-color="#fff"/><stop offset="0.15" stop-color="#fff" stop-opacity="0.98"/><stop offset="0.34" stop-color="#fff" stop-opacity="0.92"/><stop offset="0.55" stop-color="#fff" stop-opacity="0.81"/><stop offset="0.77" stop-color="#fff" stop-opacity="0.67"/><stop offset="1" stop-color="#fff" stop-opacity="0.5"/></linearGradient></defs><path class="cls-1" d="M492.9,189.58C492.9,84.83,382.59,0,246.45,0S0,84.82,0,189.58c0,40.63,16.71,78.07,45,109C29.15,334.37,3,362.8,2.6,363.16A9.4,9.4,0,0,0,.82,373.45a9.29,9.29,0,0,0,8.65,5.73c43.37,0,79.27-14.57,105.1-29.62,38.15,18.61,83.29,29.62,131.88,29.62C382.59,379.14,492.9,294.31,492.9,189.58Z"/></svg>