<?xml version="1.0" encoding="UTF-8"?><svg id="a" xmlns="http://www.w3.org/2000/svg" viewBox="0 0 425.85 496.82"><path d="M320.15,380.16c-29.61,23.94-91.74,36.6-151.19,36.6s-121.61-12.66-151.21-36.61v48.22h0c0,24.05,62.09,50.85,151.2,50.85s151.1-26.77,151.19-50.8v-48.26Zm0-91.63l17.74-.1v.1c0,10.72-5.37,20.72-15.82,29.88,12.67,11.15,15.82,22.09,15.82,29.87,0,.05,0,.1,0,.15v79.93h0c0,44.45-87.05,68.45-168.95,68.45S.44,472.93,.03,428.68c0-.04-.03-.09-.03-.13v-80.29s.02-.04,.02-.07c.03-7.79,3.18-18.68,15.84-29.8C3.28,307.28,.09,296.45,0,288.73h0s-.02-.06-.02-.1v-80.29s.02-.05,.02-.08c.03-7.79,3.19-18.68,15.85-29.79C3.28,167.36,.09,156.52,0,148.81h0s-.02-.07-.02-.11V68.42s.02-.05,.02-.08C.17,23.95,87.12,0,168.96,0c46.23,0,90.64,7.35,121.85,20.16l-6.79,16.26c-29.13-11.96-71.06-18.82-115.06-18.82-89.11,0-151.2,26.8-151.2,50.87s62.09,50.86,151.2,50.86c2.4,.03,4.76,0,7.13-.09l.75,17.58c-2.63,.11-5.25,.11-7.88,.11-59.46,0-121.61-12.66-151.21-36.61v48.19h0v.2c.09,9.23,9.55,17.29,17.49,22.41,23.87,15.21,66.63,25.61,114.31,27.76l-.81,17.58c-48.31-2.19-90.61-12.21-117.84-27.58-6.71,5.02-13.16,11.8-13.16,19.49,0,24.06,62.09,50.86,151.2,50.86,8.74,0,17.42-.29,25.8-.87l1.23,17.55c-8.78,.61-17.89,.92-27.03,.92-59.46,0-121.61-12.66-151.21-36.61v48.19h0c.09,9.43,9.55,17.48,17.49,22.61,27.29,17.41,78.53,28.25,133.72,28.25h3.9v17.6h-3.9c-56.06,0-107.01-10.41-138.17-28-6.67,5.01-13.03,11.76-13.03,19.39,0,24.06,62.09,50.87,151.2,50.87s151.1-26.77,151.19-50.81v-.09h0c-.02-7.66-6.41-14.4-13.09-19.41-4.33,2.46-8.97,4.82-14.25,7l-6.8-16.26c6.44-2.65,12.03-5.51,16.62-8.52,8-5.22,17.53-13.38,17.53-22.54h0Zm76-128.69h-49.72c-2.94,0-5.7-1.44-7.34-3.85-1.66-2.41-2-5.48-.91-8.18l30.24-75.6h-114.53l-53.23,105.59h56.62c2.83,0,5.49,1.35,7.17,3.61,1.66,2.27,2.15,5.18,1.29,7.87l-50.53,157.53,180.94-186.95Zm27.23-2.7l-221.79,229.14c-1.73,1.78-4.05,2.7-6.41,2.7-1.56,0-3.13-.4-4.53-1.23-3.55-2.09-5.17-6.33-3.92-10.23l58.43-182.12h-58.85c-3.08,0-5.93-1.58-7.55-4.17-1.61-2.6-1.77-5.83-.38-8.56l62.1-123.19c1.5-2.98,4.57-4.87,7.93-4.87h133.08c2.94,0,5.7,1.45,7.34,3.85,1.66,2.42,2,5.48,.91,8.19l-30.24,75.6h57.47c3.55,0,6.77,2.11,8.16,5.35,1.39,3.25,.7,7-1.76,9.55h0ZM30.65,431.83c12.57,7.08,28.4,13.04,47.04,17.69l4.33-17.07c-16.85-4.2-31.57-9.71-42.6-15.92l-8.77,15.3Zm47.04-123.1l4.33-17.06c-16.85-4.21-31.57-9.71-42.6-15.93l-8.77,15.3c12.57,7.08,28.39,13.04,47.04,17.69h0ZM30.65,150.25l8.77-15.3c11.01,6.21,25.75,11.71,42.6,15.93l-4.33,17.06c-18.67-4.65-34.48-10.61-47.04-17.69h0Z"/></svg>