<?xml version="1.0" encoding="UTF-8"?><svg id="a" xmlns="http://www.w3.org/2000/svg" viewBox="0 0 490.2 500"><path d="M362.75,407.09v-47.51l29.41-11.76v47.51l-29.41,11.76Zm-49.02-59.27l29.41,11.76v47.51l-29.41-11.76v-47.51Zm-58.82,127.9v-47.51l29.41-11.76v47.51l-29.41,11.76Zm-49.02-59.27l29.41,11.76v47.51l-29.41-11.76v-47.51Zm-58.82-9.35v-47.51l29.41-11.76v47.51l-29.41,11.76Zm-49.02-59.27l29.41,11.76v47.51l-29.41-11.76v-47.51Zm39.22-23.53l22.63,9.05-22.63,9.05-22.63-9.05,22.63-9.05Zm107.84,68.63l22.63,9.05-22.63,9.05-22.63-9.05,22.63-9.05Zm107.84-68.63l22.63,9.05-22.63,9.05-22.63-9.05,22.63-9.05Zm52.66-.06l-49.02-19.61c-2.33-.92-4.94-.92-7.27,0l-49.02,19.61c-3.73,1.5-6.17,5.1-6.17,9.11v58.07l-45.38-18.16c-2.33-.92-4.94-.92-7.27,0l-45.38,18.16v-58.07c0-4.01-2.44-7.61-6.17-9.11l-49.02-19.61c-2.33-.92-4.94-.92-7.27,0l-49.02,19.61c-3.73,1.5-6.17,5.1-6.17,9.11v68.63c0,4.01,2.44,7.61,6.17,9.11l49.02,19.61c1.17,.46,2.4,.7,3.64,.7s2.47-.24,3.64-.7l45.38-18.16v58.07c0,4.01,2.44,7.61,6.17,9.11l49.02,19.61c1.17,.46,2.4,.7,3.64,.7s2.47-.24,3.64-.7l49.02-19.61c3.73-1.5,6.17-5.1,6.17-9.11v-58.07l45.38,18.16c1.17,.46,2.4,.7,3.64,.7s2.47-.24,3.64-.7l49.02-19.61c3.73-1.5,6.17-5.1,6.17-9.11v-68.63c0-4.01-2.44-7.61-6.17-9.11h0Zm84.6-118.95c0,57.3-126.28,88.24-245.1,88.24S0,262.58,0,205.27c0-27.36,30.34-51.45,85.44-67.83l5.59,18.79c-44.06,13.1-71.42,31.89-71.42,49.04,0,32.46,92.6,68.63,225.49,68.63s225.49-36.17,225.49-68.63c0-17.15-27.36-35.94-71.42-49.04l5.59-18.79c55.1,16.38,85.44,40.47,85.44,67.83h0ZM245.1,20.3l100.14,38.52-100.14,38.52-100.14-38.52L245.1,20.3Zm103.73,193.83c-18.49,8.27-49.53,17.91-93.92,19.21V114.58l107.84-41.47v119.52c0,9.32-5.45,17.76-13.92,21.51h0Zm-221.37-21.51V73.11l107.84,41.47v118.76c-44.39-1.29-75.43-10.93-93.96-19.23-8.43-3.73-13.88-12.17-13.88-21.49h0Zm5.92,39.4c21.58,9.66,58.48,21.18,111.73,21.18s90.15-11.52,111.7-21.16c15.53-6.87,25.56-22.34,25.56-39.42V58.82c0-4.06-2.5-7.7-6.28-9.16L248.62,.65c-2.27-.86-4.76-.86-7.04,0L114.13,49.67c-3.78,1.46-6.28,5.1-6.28,9.16V192.63c0,17.08,10.03,32.55,25.53,39.4h0Z"/></svg>