<?xml version="1.0" encoding="UTF-8"?><svg id="a" xmlns="http://www.w3.org/2000/svg" viewBox="0 0 499.13 486.81"><path d="M249.57,0C111.75,0,0,111.73,0,249.57c0,110.27,71.51,203.82,170.67,236.82,12.47,2.31,17.05-5.41,17.05-12.01,0-5.95-.23-25.61-.34-46.46-69.43,15.1-84.08-29.45-84.08-29.45-11.35-28.85-27.71-36.52-27.71-36.52-22.64-15.49,1.71-15.17,1.71-15.17,25.06,1.76,38.26,25.72,38.26,25.72,22.26,38.15,58.38,27.12,72.62,20.75,2.24-16.13,8.71-27.14,15.84-33.37-55.43-6.31-113.7-27.71-113.7-123.34,0-27.25,9.75-49.51,25.71-66.99-2.59-6.29-11.13-31.67,2.42-66.05,0,0,20.96-6.71,68.65,25.58,19.91-5.53,41.26-8.3,62.47-8.4,21.21,.1,42.58,2.87,62.52,8.4,47.63-32.29,68.56-25.58,68.56-25.58,13.58,34.38,5.04,59.76,2.45,66.05,16,17.48,25.69,39.74,25.69,66.99,0,95.86-58.38,116.96-113.96,123.14,8.95,7.74,16.93,22.93,16.93,46.22,0,33.39-.29,60.27-.29,68.49,0,6.64,4.49,14.42,17.14,11.97,99.11-33.04,170.53-126.55,170.53-236.78C499.13,111.73,387.4,0,249.57,0ZM93.47,355.52c-.55,1.24-2.5,1.61-4.28,.76-1.81-.81-2.83-2.5-2.24-3.75,.54-1.28,2.49-1.63,4.3-.78,1.81,.81,2.85,2.52,2.22,3.76Zm12.28,10.95c-1.19,1.1-3.52,.59-5.1-1.15-1.63-1.74-1.94-4.07-.73-5.19,1.23-1.1,3.48-.59,5.12,1.15,1.63,1.76,1.95,4.07,.71,5.19Zm8.42,14.01c-1.53,1.06-4.03,.07-5.58-2.15-1.53-2.22-1.53-4.88,.03-5.95,1.55-1.07,4.01-.11,5.58,2.1,1.52,2.26,1.52,4.92-.04,6Zm14.24,16.23c-1.37,1.51-4.28,1.1-6.41-.95-2.18-2.01-2.79-4.87-1.42-6.38,1.38-1.51,4.31-1.09,6.46,.95,2.17,2.01,2.83,4.88,1.37,6.38Zm18.41,5.48c-.6,1.95-3.41,2.84-6.24,2.01-2.82-.86-4.67-3.15-4.1-5.12,.59-1.97,3.41-2.89,6.25-2,2.82,.85,4.67,3.12,4.08,5.11Zm20.95,2.32c.07,2.06-2.33,3.76-5.29,3.8-2.98,.07-5.4-1.6-5.43-3.62,0-2.08,2.34-3.77,5.33-3.82,2.97-.06,5.4,1.6,5.4,3.64Zm20.58-.79c.36,2.01-1.71,4.07-4.65,4.62-2.9,.53-5.58-.71-5.95-2.7-.36-2.06,1.74-4.12,4.63-4.65,2.95-.51,5.59,.69,5.97,2.74Z"/></svg>