<?xml version="1.0" encoding="UTF-8"?>
<svg id="a" xmlns="http://www.w3.org/2000/svg" viewBox="0 0 500 500">
    <path
        d="M0,0V500H500V0H0ZM272.1,389.97c0,48.67-28.53,70.82-70.15,70.82-37.59,0-59.41-19.47-70.48-42.96h0l38.26-23.16c7.38,13.09,14.1,24.16,30.2,24.16s25.17-6.04,25.17-29.53V229.55h46.99v160.43Zm111.11,70.82c-43.63,0-71.83-20.81-85.58-48h0l38.26-22.15c10.07,16.45,23.16,28.53,46.32,28.53,19.47,0,31.88-9.73,31.88-23.16,0-16.11-12.75-21.82-34.23-31.21l-11.74-5.04c-33.9-14.43-56.39-32.55-56.39-70.82,0-35.24,26.85-62.09,68.81-62.09,29.87,0,51.35,10.41,66.79,37.59l-36.58,23.49c-8.06-14.43-16.78-20.14-30.2-20.14s-22.49,8.73-22.49,20.14c0,14.1,8.73,19.8,28.86,28.53l11.75,5.03c39.94,17.12,62.43,34.57,62.43,73.84,0,42.29-33.23,65.45-77.87,65.45Z" />
</svg>