<?xml version="1.0" encoding="UTF-8"?><svg id="a" xmlns="http://www.w3.org/2000/svg" viewBox="0 0 482.14 500"><path d="M134,482.14H23.13L145.75,225.86l55.56,114.38-67.31,141.91Zm19.75-280.78c-1.5-3.08-4.64-5.04-8.05-5.04h-.03c-3.45,0-6.58,1.98-8.05,5.08L.87,487.22c-1.32,2.77-1.14,6.02,.51,8.62,1.63,2.59,4.49,4.16,7.56,4.16H139.66c3.46,0,6.6-1.99,8.09-5.11l71.57-150.89c1.15-2.45,1.15-5.28-.04-7.71l-65.53-134.93ZM464.24,482.14h-110.15L177.38,112.23c-1.48-3.11-4.63-5.09-8.08-5.09H97.23l.08-89.29H238.57l175.9,369.9c1.48,3.11,4.63,5.1,8.08,5.1h41.69v89.29Zm8.95-107.14h-44.98L252.31,5.1c-1.48-3.11-4.63-5.1-8.09-5.1H88.37c-4.93,0-8.94,3.99-8.95,8.92l-.1,107.14c0,2.37,.93,4.64,2.62,6.32,1.67,1.68,3.95,2.62,6.33,2.62h75.38l176.72,369.91c1.49,3.11,4.62,5.09,8.07,5.09h124.74c4.95,0,8.95-4,8.95-8.93v-107.14c0-4.93-4-8.93-8.95-8.93h0Z"/></svg>