<?xml version="1.0" encoding="utf-8"?>
<!-- Generator: Adobe Illustrator 26.0.1, SVG Export Plug-In . SVG Version: 6.00 Build 0)  -->
<svg version="1.1" id="Layer_1" xmlns="http://www.w3.org/2000/svg"
	xmlns:xlink="http://www.w3.org/1999/xlink" x="0px" y="0px"
	viewBox="0 0 1412.2 393.8" style="enable-background:new 0 0 1412.2 393.8;" xml:space="preserve">
<g>
	<path d="M5.6,0.1c11.3,0,21.7-0.3,32.2,0.1c23.1,0.7,46.3,1.5,69.4,2.8c15.9,0.9,31.3,4.2,44.9,13.3c15.1,10.2,20.3,31.1,17.4,47.3
		c-3.9,21.7-18.7,31.8-38.2,37.3c-1.5,0.4-3.1,0.8-5.9,1.6c24.5,6.9,43.9,17.7,49.3,45c-20.6,0.7-40.7,1.4-61.2,2.1
		c-1.6-12.8-3.5-25.2-15.2-32.9c-10.8-7.2-23-5.1-35.1-6.1c-0.7,13.8-1.5,27.1-2.2,41c-20.2,0.7-40.2,1.4-61,2.1
		C1.9,102.1,3.8,50.8,5.6,0.1z M63.4,93.5c8.3,0,16,0.3,23.6-0.1c7.7-0.4,13.6-4.5,17-11.4c7.2-15,8-30.7,3.3-46.5
		c-2.3-7.7-7.6-13.3-15.5-14.7C83.5,19.2,75,19,66.5,18.3C65.4,43.7,64.4,68,63.4,93.5z"/>
	<path d="M1200.6,204.1c-14,0-27,0.1-40-0.1c-1.6,0-3.7-1.4-4.6-2.7c-20-28.2-39.8-56.5-59.7-84.7c-7.1-10-14.1-20.1-22.3-29.9
		c1,35,2,69.9,3,105.5c-6-2.6-11.7-4.8-17.1-7.5c-1-0.5-1.7-2.7-1.7-4.1c-0.8-23.6-1.4-47.3-2.1-70.9c-0.9-30.3-1.8-60.6-2.7-90.9
		c0-1,0-2,0-3.5c11.3-0.4,22.4-0.8,33.5-1c1.3,0,2.9,1.4,3.7,2.6c28.4,39.8,56.6,79.6,84.9,119.4c1.1,1.6,2.4,3.2,4.6,4.6
		c-1.3-42.9-2.6-85.8-3.9-129.3c6.3,0,12.2,0,18.9,0C1197,75.1,1198.8,138.7,1200.6,204.1z"/>
	<path d="M327.5,61.6c19.2,6.6,38.1,13,57.6,19.7c-7.1,21.2-24,29.4-44.6,34.6c12.2,6.4,24.5,11.1,31.5,25.2c-6.2,0-11.3-0.1-16.5,0
		c-11.8,0.3-23.6,0.7-35.4,1.2c-3.2,0.2-4.7-0.8-5.6-3.9c-4-12.8-11.2-18.5-24.6-19.5c-3.8-0.3-7.6,0-12.7,0c0,7.2-0.1,14.1,0,21
		c0,2.5-0.4,4-3.5,4.1c-19.1,0.5-38.3,1.3-58.2,1.9c1.5-40.4,3-80.5,4.6-121.2c15.6,5.3,30.5,10.4,45.5,15.5
		c3.3,1.1,6.5,2.7,9.9,3.4c3.8,0.8,5.1,2.6,4.8,6.5c-0.7,14-1.2,27.9-1.7,41.9c-0.1,2.8,0,5.6,0,8.3
		C306.6,104.5,326.8,98.6,327.5,61.6z"/>
	<path d="M1354.8,143c-9.4-1.4-18.8-2.8-29-4.3c0.8-6.5,1.7-13,2.6-20.3c28,4,55.5,7.9,83.8,11.9c-1.1,8-2,15.7-3.1,23.4
		c-2.3,16.1-4.5,32.3-7.1,48.3c-0.5,3.2-2.1,6.7-4.3,9.1c-6.6,7.5-13.6,14.5-21,22.2c-1.3-3.8-2.3-7-3.2-9.5
		c-9.8,2.9-19.3,6.7-29.1,8.6c-27.8,5.3-75-5.9-94.8-40.9c-0.8-1.4-1.2-4.1-0.4-5.1c17.2-20.5,34.6-40.8,52.6-61.9
		c0,2.4,0.2,3.9,0,5.4c-3.3,18.6-4.8,37.3-3.7,56.1c1,17.8,10,28.8,28.6,29.1c9.1,0.2,16-4.2,18.5-12.9c2.2-7.8,3.5-15.9,4.7-23.9
		C1351.8,166.9,1353.1,155.3,1354.8,143z"/>
	<path d="M1355.9,9.3c-2.9,4.6-5.2,8.6-7.9,12.3c-0.6,0.8-2.5,1.1-3.7,1c-3.9-0.4-7.8-1.7-11.8-1.8c-18.1-0.4-30.2,9.5-32.5,27.6
		c-2,16.1-2.3,32.4-4,48.6c-0.4,4-2.8,8-5,11.5c-11.9,18.7-24.1,37.3-36.2,56c-0.5,0.8-1.3,1.5-2.6,3.1c-2.5-4.8-5.1-8.9-6.8-13.4
		c-11.2-28.3-13-57.5-4.5-86.5c14.3-48.7,57.6-71.3,104.8-61.6C1348.9,6.7,1352,8.1,1355.9,9.3z"/>
	<path d="M1010.5,163.6c-11.1-4.8-21.3-9-31.5-13.6c-6.6-2.9-13.1-5.8-20.5-5.3c-2.9,0.2-4.1-0.9-4.1-4c-0.8-32-1.8-63.9-2.5-95.9
		c0-1.5,1.4-3.7,2.8-4.4c15-7.6,30.1-15,45.2-22.3c1.7-0.8,3.7-1.1,6.6-1.9C1007.8,65.4,1009.1,113.9,1010.5,163.6z"/>
	<path d="M633.1,124c-2.7,8.8-5.3,17.2-8.2,26.4c16.1,0,31.5,0,47.4,0c-1.8-7.5-3.7-15.2-5.7-23.6c10.4,0.9,20.1,1.7,29.9,2.5
		c7.5,0.6,14.9,1.4,22.4,1.8c3.1,0.2,4.5,1,5.3,4.4c4.8,19.6,9.9,39.2,15,58.8c1.6,6.4,3.2,12.8,4.7,18.5c-17.9,0-35.7,0.1-53.5-0.1
		c-1.1,0-2.8-2-3.1-3.3c-3.1-11.5-5.9-23.2-9-34.7c-0.4-1.5-2.2-3.7-3.4-3.7c-18.5-0.2-36.9-0.2-55.9-0.2c-0.2,0.6-0.9,2-1.8,4.1
		c-5-5.7-9.9-10.8-14.3-16.3c-1-1.2-1.1-3.8-0.6-5.5c3.1-10.1,6.5-20.2,10-30.6C619.2,122.9,625.9,123.5,633.1,124z"/>
	<path d="M132,170.9c18.3-1.4,36.3-2.8,54.3-4.1c3.8,24.5-5.1,45.5-29.2,53.1c-9.1,2.9-18.8,4.6-28.3,4.9c-30.5,1-60.9,1-91.4,1.4
		c-1.8,0-3.6,0-6.2,0c0-7.5,0.1-14.5,0-21.4c-0.1-7.3-0.3-14.6-0.6-22c-0.1-2.7,0.3-4.4,3.6-4.6c16.8-1.2,33.5-2.5,51.2-3.8
		c0,11.7,0,23.3,0,34.7C114.9,212.7,132.3,206.8,132,170.9z"/>
	<path d="M610.7,118.2c9.9-32.3,19.7-64,29.4-95.6c15,0,29.7,0,44.7,0C692.5,51,700,79,707.7,107.7c-16.4,1.8-32.2,3.5-48.6,5.4
		c-4.1-16-8.2-31.8-12.6-49.1c-2.4,7.9-4.5,14.5-6.4,21.1c-2.7,9.1-5.4,18.1-8,27.2c-0.8,2.7-2.1,4.1-5.1,4.3
		C621.8,116.9,616.7,117.6,610.7,118.2z"/>
	<path d="M502.5,38.4c0,17.6,0,34.8,0,52.9c17.2,0,34.5,0,52,0c0,6.3,0,11.7,0,18.2c-10.7-0.5-21.8,0.8-31.7-1.9
		c-23.2-6.3-46-14.6-68.9-22c-0.8-0.3-1.5-0.7-2-0.9c0-21.5,0-42.8,0-63.9c38,0,75.4,0,113.2,0c0,6.2,0,11.7,0,17.6
		C544.4,38.4,523.8,38.4,502.5,38.4z"/>
	<path d="M470,200.9c26.9,0,52.7,0,79.1,0c0,5.8,0,11.8,0,18.2c-44.1,0.6-88.2,1.3-133.1,1.9c0-23.9,0-47.4,0-71.7
		c17.2-1.3,35-2.7,54-4.2C470,164.1,470,182.5,470,200.9z"/>
	<path d="M833.8,343.8c2.1,1,3.6,1.8,5,2.4c7,3,10.2,8.6,11.2,15.9c1.3,9.6,2.8,19.2,4.3,29.2c-8,0-16.9,0.1-25.9-0.1
		c-0.9,0-2.4-1.3-2.7-2.2c-0.8-2.8-1.5-5.8-1.7-8.7c-0.4-6.5-0.5-13-0.7-19.5c-0.5-11.3-6.2-16-18.2-14.3c0,7.4,0,14.8,0,22.2
		c0,7.3,0,14.6,0,22.2c-9.4,0-18.2,0-27.3,0c0-31.5,0-62.8,0-94.3c1.4-0.2,2.7-0.4,4-0.4c15.3,0.2,30.6-0.1,45.9,1
		c5.7,0.4,11.8,2.9,16.5,6.2c14.3,9.7,12.1,30.3-3.6,37.6C838.6,341.9,836.6,342.6,833.8,343.8z M805.3,337.9
		c7.4,0.1,14.7,0.9,18.7-6.2c3.9-6.9,4-14.7-0.4-21.3c-4.2-6.4-11.3-5.7-18.3-5.2C805.3,316.1,805.3,326.7,805.3,337.9z"/>
	<path d="M1069.5,349.8c-4.6,0-8.7,0-13.1,0c0-3.3,0-6.3,0-9.5c12.8,0,25.5,0,38.6,0c0,16.8,0,33.6,0,50.5
		c-5.4,1.4-9.9,1.3-11.1-5.1c-5.6,2.2-10.7,5.1-16.1,6.2c-23.5,4.8-48.9-6-52.6-37.7c-1.8-15.2,0-29.9,9.4-42.8
		c10.3-14.1,30.4-20.6,46.9-15.1c10.9,3.6,16.5,11.9,19.2,22.4c0.3,1.1-1,3.3-2.2,4c-2.8,1.7-6,2.9-9.1,4.3
		c-1.1-5.1-1.7-10.2-3.3-14.9c-2.1-6.3-7.1-9.1-14-8.9c-7.2,0.3-12.6,4-14.1,10.5c-1.4,6.3-2.6,12.7-2.9,19.1
		c-0.5,9.3-0.4,18.7,0.1,28c0.3,5.2,1.4,10.5,2.8,15.6c1.6,5.8,6.9,8.6,13.4,7.8c5.3-0.7,7.7-3.4,8-10.1
		C1069.7,366.2,1069.5,358.4,1069.5,349.8z"/>
	<path d="M370.4,391.9c-9,0-17.2,0.4-25.3-0.2c-2.5-0.2-4.7-3.2-7.7-5.3c-9.1,6.2-19.7,10-31.9,5.5c-7.7-2.8-13.7-7.6-17.6-14.7
		c-8-14.2-2.6-24.5,20.5-39.4c-1.8-3.6-3.8-7.2-5.4-10.9c-4.8-11.2-0.9-22.8,9.7-28.6c7.9-4.4,16.3-4.7,24.7-2
		c10.2,3.3,14.7,17.6,8.6,27.6c-2.6,4.3-6.5,7.7-10.2,12c4.6,7.5,9.7,15.7,14.9,24.1c6.6-9.6,8.4-20.6,10.9-31.6c2.2,0,4.2,0,6.7,0
		c1.2,9.4-2,17.7-5.4,26c-1.1,2.8-2.1,5.8-4.1,7.9c-3.7,4.1-2.6,7.3,0.2,11.3C363,379.1,366.3,385.2,370.4,391.9z M333.9,378
		c-6.9-11-13.8-22.1-20.7-33.1c-5.6,2.8-7.5,7.1-7.1,12.6c0.8,9.3,5.4,16.7,12.2,22.7C324,385,328.9,384.2,333.9,378z M330.8,328.5
		c8.3-5.5,10.8-13.3,7.5-20.8c-2-4.4-7.5-6.8-12-5.2c-3.8,1.4-5.7,6.1-3.6,10.9C324.9,318.6,327.9,323.3,330.8,328.5z"/>
	<path d="M986.7,359.1c0-20.8,0-41.6,0-62.6c3.2,0,5.9,0,8.9,0c0,31.4,0,62.6,0,94.7c-6.6,0-13.4,0.2-20.1-0.2
		c-1.1-0.1-2.4-2.1-3.2-3.4c-11.5-17.4-23-34.9-34.5-52.3c-0.5-0.8-1.2-1.5-2.6-3.1c0,20.2,0,39.3,0,58.8c-3.2,0-5.8,0-8.8,0
		c0-31.4,0-62.8,0-94.8c5,0,10.2-0.2,15.2,0.1c1.2,0.1,2.6,1.7,3.5,3c12.9,19.1,25.7,38.3,38.6,57.5c0.6,0.9,1.3,1.8,1.9,2.7
		C986,359.4,986.4,359.2,986.7,359.1z"/>
	<path d="M775.5,138.4c18.9,3,37,5.9,54.9,8.8c0,22.8,0,45.3,0,67.7c-19.1,0-37.5,0-56.6,0C774.4,189.1,774.9,164.2,775.5,138.4z"/>
	<path d="M529.1,333c0,19.2,0,38.5,0,57.9c-3,0-5.6,0-8.6,0c0-31.3,0-62.7,0-94.8c5.1,0,10.4-0.2,15.6,0.1c1.2,0.1,2.6,1.9,3.4,3.1
		c13,19.3,25.9,38.6,38.8,57.9c0.4,0.7,1,1.2,2.4,3c0-22.1,0-42.9,0-64c3.3,0,5.9,0,9,0c0,31.3,0,62.6,0,94.8
		c-6.4,0-13,0.2-19.5-0.1c-1.2-0.1-2.5-1.9-3.4-3.1c-12.2-18.4-24.4-36.8-36.6-55.2C529.9,332.8,529.5,332.9,529.1,333z"/>
	<path d="M945.5,217.7c-9.5,0-18.3,0.1-27.1,0c-10.5-0.1-21-0.4-31.4-0.8c-1.6-0.1-4-1.1-4.7-2.4c-10.9-21-21.5-42.1-32.7-64.1
		c10.9,1.7,20.8,3.2,30.8,4.8c10.5,1.7,21,3.2,31.5,5.1c2.2,0.4,5,1.7,5.9,3.5C927,181.5,936.1,199.3,945.5,217.7z"/>
	<path d="M314,157.1c12.5-1,26.1-2.2,39.6-3.1c10.4-0.7,10.9-0.1,12.4,10.3c1.7,12,3,24.1,5.1,36c1.3,7,4,13.8,6.2,21.1
		c-0.9,0.1-2.5,0.3-4.1,0.3c-16.5,0.2-32.9,0.3-49.4,0.6c-3.2,0.1-5.1-0.8-5.6-4c-1.4-7.8-3.6-15.6-4.1-23.4
		C313.5,182.6,314,170.3,314,157.1z"/>
	<path d="M760.1,102.9c0-12,0-22.5,0-32.9c0.1-14.2,0.3-28.3,0.3-42.5c0-2.7,0.5-4.3,3.8-4.3c15.5,0.1,30.9,0.1,46.5,0.1
		c0.3,1.6,0.6,2.4,0.6,3.2c-0.2,18.8-0.5,37.6-0.6,56.4c0,3.4-1.3,5-4.4,6.1c-7.3,2.6-14.4,6.2-21.9,8.4
		C776.7,99.8,768.7,101.1,760.1,102.9z"/>
	<path d="M721.8,381.7c13.3,0,26.2,0,39.5,0c0,3.3,0,6.2,0,9.4c-22.3,0-44.4,0-66.8,0c0-31.4,0-62.8,0-94.5c20.2,0,40.4,0,61.1,0
		c0,2.9,0,5.8,0,9.3c-11.1,0-22.3,0-33.8,0c0,9.7,0,18.8,0,28.5c9.1,0,18.3,0,28,0c0,3.5,0,6.3,0,9.8c-9.1,0-18.3,0-27.9,0
		C721.8,356.8,721.8,368.8,721.8,381.7z"/>
	<path d="M504.9,381.5c0,3.8,0,6.6,0,9.6c-22.3,0-44.4,0-66.8,0c0-31.5,0-62.9,0-94.5c20.3,0,40.5,0,60.9,0c0,3.2,0,6.1,0,9.4
		c-11.2,0-22.1,0-33.4,0c0,9.7,0,18.9,0,28.6c9.3,0,18.6,0,28.2,0c0,3.4,0,6.2,0,9.6c-9.3,0-18.5,0-28.1,0c0,12.6,0,24.6,0,37.3
		C478.4,381.5,491.5,381.5,504.9,381.5z"/>
	<path d="M277.3,223c-17.6,0-35.4,0-53.8,0c0-19.2,0-38.8,0-59.1c17.4-1.3,35.2-2.7,53.8-4.2C277.3,180.9,277.3,201.4,277.3,223z"/>
	<path d="M411.7,71.8c-8.1-2.6-16-5.2-23.9-7.7c-7.6-2.5-15.2-4.8-22.8-7.5c-1.5-0.5-3.3-2-3.7-3.3c-3-10.8-10.3-16.5-21-17.9
		c-5.2-0.7-10.6-0.1-16.3-0.1c-0.2,2.3-0.5,4.6-0.8,7.7c-6.5-2.1-12.8-4-19.1-6.1c-8.4-2.7-16.7-5.9-25.2-8.1
		c-5.8-1.5-7.1-4.5-5.3-10.5c1.3,0,2.9,0,4.5,0c25,0.3,50,0.3,75,1c17.1,0.5,33.4,4.4,46.6,16.4C410.4,45.3,413.8,57.4,411.7,71.8z"
		/>
	<path d="M627.3,306c-8.1,0-15.4,0-23,0c0-3.2,0-6.2,0-9.4c25,0,50,0,75.4,0c0,3,0,5.9,0,9.4c-7.6,0-15.2,0-23.2,0
		c0,28.6,0,56.7,0,85c-9.9,0-19.3,0-29.2,0C627.3,362.8,627.3,334.7,627.3,306z"/>
	<path d="M817.6,132c-3.2,0.5-5.9,1.4-8.6,1.2c-11.9-0.7-23.8-1.6-36.1-3.5c27.6-13.6,55.1-27.1,83.3-41
		c9.6,16.6,19.2,33.2,29.1,50.4c-11.4-0.8-22-1.6-32.6-2.4c-9.6-0.7-19.2-1.4-28.8-2.4C821.6,134.1,819.4,132.7,817.6,132z"/>
	<path d="M902.4,296.5c0,31.7,0,62.8,0,94.4c-8.9,0-17.8,0-27,0c0-31.3,0-62.7,0-94.4C884.3,296.5,893.1,296.5,902.4,296.5z"/>
	<path d="M1031.6,219.2c-19.3,0-37.4,0-55.7,0c0-16.3,0-31.8,0-48.2c9.4,3.4,18.1,6.6,26.7,9.8c8.6,3.2,17.2,6.3,25.7,9.6
		c1.3,0.5,3.1,2.3,3.1,3.5C1031.7,202.5,1031.6,210.9,1031.6,219.2z"/>
	<path d="M493.7,123.7c-0.3,4.1-0.5,8-0.8,12.5c-20.3,0.7-40.3,1.4-60.1,2.1c0-13.7,0-26.8,0-40.6c25.3,8.7,49.7,17,74.1,25.4
		c-0.1,0.2-0.1,0.4-0.2,0.7C502.5,123.7,498.3,123.7,493.7,123.7z"/>
	<path d="M1380.6,32.6c12.2,7.7,20.1,18.1,24.3,31.1c2.3,7.2,3.5,14.8,4.8,22.3c0.2,1.2-1,3.7-2.1,4c-8.7,2.8-17.4,5.3-26.8,8
		c0.5-6.8,1.2-13.1,1.4-19.3c0.3-12.5-1.7-24.2-13.1-32.6C1372.9,41.7,1376.6,37.4,1380.6,32.6z"/>
	<path d="M895.4,24.6c-11.8,14.6-22.7,28-33.6,41.4c-0.6,0.8-1.3,1.6-2.2,1.9c-10.3,4.1-20.6,8.2-31.5,11.5
		c5.7-7.2,11.3-14.5,17-21.7c7.8-9.9,15.6-19.9,23.7-29.5c1.5-1.8,4.5-3.3,6.9-3.5C881.9,24.2,888,24.6,895.4,24.6z"/>
	<path d="M563,218.8c4.3-15.2,8.4-29.8,12.8-45.2c5.7,3.9,11.2,7.5,16.5,11.3c0.6,0.4,0.7,2.1,0.5,3.1c-2.5,9.6-5,19.2-7.8,28.7
		c-0.3,1-2.2,2-3.3,2.1C575.6,218.9,569.7,218.8,563,218.8z"/>
	<path d="M1409.1,218.6c-4.4,11.7-8.3,22.1-12.3,33c-4.7-1.7-9.7-2.6-13.4-5.3c-2.2-1.6-2.3-6.2-2.9-9.5c-0.2-1,1-2.7,2-3.3
		C1390.8,228.6,1399.3,224,1409.1,218.6z"/>
	<path d="M1097.8,220.9c-6.9,0-12.8,0-18.8,0c0-3.9,0-7.5,0-11.7c5.9,2.1,11.4,3.8,16.6,6.2C1096.8,216,1097,218.8,1097.8,220.9z"/>
	<path d="M965.2,26.5c-7.2,2.8-14.4,5.6-21.9,8.6c0-3.4,0-6.3,0-9.5c7.4,0,14.5,0,21.7,0C965.1,25.9,965.1,26.2,965.2,26.5z"/>
</g>
</svg>