<?xml version="1.0" encoding="UTF-8"?>
<svg id="a" xmlns="http://www.w3.org/2000/svg" viewBox="0 0 364.23 500">
    <defs>
        <style>.b{fill:#010101;}</style>
    </defs>
    <path class="b"
        d="M358.31,494.37c5.82-3.14,7.7-10.59,4.05-16.11l-56.93-86.23c-35.08-53.09-106.51-161.23-158.74-240.43C94.47,72.4,50.81,6.65,49.63,5.4,45.46,.83,42.79,.2,26.74,.2,13.13,.2,11.88,.36,8.65,1.93c-1.89,1.02-4.56,3.15-5.82,4.8h0C1.25,8.72,.39,11.18,.38,13.72L.15,167.57,0,322.75c0,1.65,.36,3.28,1.06,4.77l.59,1.27c1.18,2.28,2.91,4.25,5.27,5.74l.87,.55c1.8,1.13,3.88,1.73,6,1.73h10.36c11.88,0,14.08-.24,16.6-1.49,3.3-1.73,4.88-3.3,6.92-7.16,1.42-2.67,1.49-7.24,1.73-120.57,.1-42.73,.28-80.36,.47-100.97,.05-5.27,6.86-7.34,9.84-2.99,13.71,20.02,40.78,59.88,71.65,105.53l80.63,119.31,64.34,86.91c26.09,35.24,49.31,66.25,59.72,80.13,3.34,4.45,9.42,5.77,14.32,3.13l7.94-4.28Z" />
    <path class="b"
        d="M289.39,1.57c3.78,1.89,6.84,5.51,7.94,9.28,.63,2.04,.79,45.77,.63,144.32l-.24,141.41-24.94-38.22-25.01-38.22V117.34c0-66.46,.31-103.82,.79-105.62,1.26-4.4,4.01-7.86,7.79-9.91,3.23-1.65,4.4-1.81,16.75-1.81,11.64,0,13.69,.16,16.28,1.57Z" />
</svg>