<?xml version="1.0" encoding="UTF-8"?>
<svg id="Layer_1" data-name="Layer 1" xmlns="http://www.w3.org/2000/svg" viewBox="0 0 209.16 231.07">
  <defs>
    <style>
      .cls-1 {
        fill-rule: evenodd;
      }
    </style>
  </defs>
  <path class="cls-1" d="M143.63,86.38c5.71,7.82,9.08,17.43,9.08,27.83,0,26.22-21.4,47.48-47.8,47.48-15,0-28.37-6.86-37.14-17.6l-35.25,26.82c-.17.13-.36.25-.55.35,15.17,26.22,36.82,48.44,67.11,58.52,1.07.43,3.59,1.28,5.13,1.28h.74c1.54,0,4.06-.85,5.13-1.28,76.96-25.61,98.12-129.56,99.08-178.34v-14.93l-65.54,49.86Z"/>
  <path class="cls-1" d="M96.24,124.47c-3.64.32-12.83-1.28-17.32-5.13-4.82-4.13-7.38-9.62-7.38-17.65,0-9.95,8.98-20.53,21.49-20.21,11.88.3,19.9,7,21.49,17.64.83,5.55-.02,8.22-.68,10.3-.1.32-.2.63-.29.93-.32,1.07-.77,3.4,0,4.17.77.77,12.51,12.08,18.29,17.64.53.64,1.6,2.25,1.6,3.53v6.1c0,.96-.26,1.28-1.28,1.28h-12.83c-.75-.11-2.25-.83-2.25-2.89,0-2.19-.23-2.51-.7-3.16-.08-.11-.17-.23-.26-.37-.64-.96-1.93-.96-3.21-.96s-2.25-.32-2.89-.96c-.64-.64-.64-1.6-.32-2.89.32-1.28,0-2.57-.64-2.89-.1-.05-.22-.12-.35-.19-.7-.4-1.83-1.04-3.18-.77-1.6.32-3.85,0-5.13-1.28-1.28-1.28-2.89-2.32-4.17-2.25ZM87.58,100.09c2.66,0,4.81-2.15,4.81-4.81s-2.15-4.81-4.81-4.81-4.81,2.15-4.81,4.81,2.15,4.81,4.81,4.81Z"/>
  <path class="cls-1" d="M57.2,114.21c0-26.22,21.4-47.48,47.8-47.48,14.47,0,27.42,6.39,36.19,16.48l67.5-51.35c-.85-1.5-2.66-2.41-3.69-2.72C175.6,20.28,115.92,2.31,112.33,1.28c-3.59-1.02-6.63-1.28-7.7-1.28h-.1c-1.07,0-4.1.26-7.7,1.28-3.59,1.02-63.28,19-92.67,27.85-1.39.43-4.17,1.92-4.17,4.48v17.61c.57,28.77,8.16,76.74,30.09,116.5l35.33-26.88c-5.19-7.6-8.23-16.76-8.23-26.64Z"/>
</svg>