<?xml version="1.0" encoding="UTF-8"?>
<svg id="Layer_1" xmlns="http://www.w3.org/2000/svg" viewBox="0 0 179.2 179.2">
    <path
        d="M70.61,139.62h9.39v-6.45h-9.39v6.45Zm15.79,0h9.6v-6.45h-9.6v6.45ZM48,8.41L6.4,29.06V157.42l41.6,14.07V8.41Zm6.4,40.84v83.91h9.6v6.45h-9.6v36.35c0,1.04-.5,2.01-1.33,2.62-.55,.4-1.21,.61-1.87,.61-.34,0-.68-.05-1.02-.17L2.18,162.8c-1.31-.44-2.18-1.67-2.18-3.06V27.05c0-1.23,.69-2.35,1.79-2.89L49.79,.33c.99-.49,2.16-.44,3.1,.15,.94,.59,1.51,1.62,1.51,2.74V42.8h9.6v6.45h-9.6Zm48,90.36h9.6v-6.45h-9.6v6.45Zm.21-90.36h9.39v-6.45h-9.39v6.45Zm-16,0h9.39v-6.45h-9.39v6.45Zm-16,0h9.39v-6.45h-9.39v6.45Zm102.19-20.2l-41.6-20.65V171.49l41.6-14.07V29.06Zm6.4,130.68c0,1.38-.88,2.62-2.18,3.06l-48,16.23c-.33,.11-.68,.17-1.02,.17-.66,0-1.32-.21-1.87-.61-.84-.61-1.33-1.58-1.33-2.62v-36.35h-6.19v-6.45h6.19V49.26h-6.19v-6.45h6.19V3.23c0-1.12,.57-2.15,1.51-2.74,.94-.59,2.11-.65,3.1-.15l48,23.82c1.09,.54,1.79,1.67,1.79,2.89V159.74ZM98.99,69.78l-5.98-2.32-16,41.95,5.98,2.32,16-41.95Zm21.67,20.49c1.25-1.26,1.25-3.3,0-4.56l-12.8-12.91-4.52,4.56,10.54,10.63-10.54,10.63,4.52,4.56,12.8-12.91Zm-49.32,12.91l-12.8-12.91c-1.25-1.26-1.25-3.3,0-4.56l12.8-12.91,4.52,4.56-10.54,10.63,10.54,10.63-4.52,4.56Z" />
</svg>