<?xml version="1.0" encoding="UTF-8"?>
<svg id="a" xmlns="http://www.w3.org/2000/svg" viewBox="0 0 500.29 463.23">
    <path
        d="M495.85,120.26l-51.02-12.89c50.62,88.26,42.59,203.92-22.12,278.06-44.21,50.67-109.82,77.8-175.79,77.8-38.38,0-76.88-9.19-111.37-28.27l8.82-16.28c86.42,47.83,200.17,28.25,264.56-45.53,59.84-68.55,66.93-175.86,19.46-257.51l-13.24,53.55-17.81-4.5,18.36-74.25c1.23-4.97,6.21-8.03,11.13-6.75l73.46,18.56-4.44,18.01ZM71.88,338.97l13.26-53.62,17.81,4.5-18.36,74.25c-1.04,4.22-4.78,7.04-8.9,7.04-.73,0-1.49-.08-2.23-.28L0,352.29l4.44-18.01,50.93,12.86C5.15,260.38,13.35,152.9,78.37,78.4,149.31-2.88,269.76-23.71,364.75,28.87l-8.82,16.28C268.39-3.29,157.45,15.85,92.15,90.67c-59.99,68.74-67.27,168.2-20.27,248.29h0Zm98.55-72.89c11.74,0,21.28,9.65,21.28,21.52s-9.55,21.51-21.28,21.51-21.29-9.65-21.29-21.51,9.55-21.52,21.29-21.52h0Zm69.19-82.19c3.37,.95,6.86,1.61,10.52,1.61,3.44,0,6.73-.58,9.92-1.43l34.26,73.97c-5.81,5.33-10.04,12.31-11.92,20.27h-73.5c-1.85-7.82-5.95-14.72-11.61-20.02l42.33-74.41Zm10.52-59.98c11.74,0,21.29,9.65,21.29,21.51s-9.55,21.52-21.29,21.52-21.28-9.65-21.28-21.52,9.55-21.51,21.28-21.51h0Zm92.02,163.69c0,11.86-9.55,21.51-21.29,21.51s-21.28-9.65-21.28-21.51,9.55-21.52,21.28-21.52,21.29,9.65,21.29,21.52h0Zm-171.73,40.08c18.69,0,34.31-13.18,38.46-30.8h73.5c4.17,17.62,19.78,30.8,38.46,30.8,21.86,0,39.66-17.98,39.66-40.08s-17.8-40.09-39.66-40.09c-3.63,0-7.08,.66-10.42,1.59l-34.17-73.77c8.22-7.35,13.53-17.97,13.53-29.91,0-22.1-17.8-40.08-39.66-40.08s-39.65,17.98-39.65,40.08c0,11.72,5.09,22.17,13.04,29.51l-42.28,74.31c-3.46-1-7.04-1.72-10.83-1.72-21.86,0-39.66,17.98-39.66,40.09s17.8,40.08,39.66,40.08h0Z" />
</svg>