<?xml version="1.0" encoding="UTF-8"?>
<svg id="a" xmlns="http://www.w3.org/2000/svg" viewBox="0 0 429.3 500">
    <defs>
        <style>.c{fill:#010101;}</style>
    </defs>
    <path id="b" class="c"
        d="M137.07,426.72h98.28c75.86,0,113.79-25,113.79-73.28s-40.52-73.27-119.82-73.27h-92.24v146.55Zm0-353.44V209.49h86.21c64.65,0,98.27-24.14,98.27-68.1s-34.48-68.1-99.14-68.1h-85.34ZM0,500v-73.28H57.76V73.28H0V0H231.03c106.03,0,170.68,49.14,170.68,134.49,0,56.03-32.76,90.52-74.13,106.89,59.48,16.38,101.72,58.62,101.72,116.38,0,91.38-70.69,142.24-186.21,142.24H0" />
</svg>