<svg height="749.999995pt" viewBox="0 0 750 749.999995" width="750pt" xmlns="http://www.w3.org/2000/svg" xmlns:xlink="http://www.w3.org/1999/xlink"><clipPath id="a"><path d="m406 229h297.125v521h-297.125zm0 0"/></clipPath><clipPath id="b"><path d="m46.875 229h297.125v521h-297.125zm0 0"/></clipPath><g><path d="m576.777344 229.097656-201.777344-118.199218-201.777344 118.199218-94.699218-55.480468 296.476562-173.617188 296.511719 173.617188zm0 0"/><path d="m236.296875 502.378906 138.675781-81.167968 138.703125 81.261718-138.675781 81.175782zm0 0"/><path d="m406.554688 203.335938 138.703124 81.214843v162.441407l-138.703124-81.207032zm0 0"/><path d="m343.414062 365.757812-138.636718 81.175782v-162.382813l138.636718-81.1875zm0 0"/></g><g clip-path="url(#a)"><path d="m703.03125 576.441406-296.476562 173.558594v-110.898438l201.875-118.199218v-236.417969l94.695312-55.414063v347.191407zm0 0"/></g><g clip-path="url(#b)"><path d="m141.601562 284.484375v236.417969l201.8125 118.136718v110.960938l-296.539062-173.617188v-347.3125zm0 0"/></g></svg>