<svg viewBox="0 0 512 512" xmlns="http://www.w3.org/2000/svg"><path d="m502.6 70.63-61.25-61.25c-5.95-6.009-14.15-9.38-22.65-9.38h-163.6c-35.35 0-64 28.66-64 64l.0195 256c.8805 35.4 29.5805 64 64.8805 64h192c35.2 0 64-28.8 64-64v-226.75c0-8.48-3.4-16.62-9.4-22.62zm-38.6 249.37c0 8.836-7.164 16-16 16h-192.9c-8.838 0-16-7.164-16-16v-255.87c0-8.836 7.164-16 16-16h128l.9 47.87c0 17.67 14.33 32 32 32h47.1v192zm-192 128c0 8.836-7.164 16-16 16h-192.9c-8.838 0-16-7.164-16-16l.88-255.9c0-8.836 7.164-16 16-16h96.02v-48.1h-96.01c-35.35 0-64 28.65-64 64l.0098 256c.0022 35.3 28.6602 64 64.0002 64h192c35.2 0 64-28.8 64-64v-32h-47.1z"/></svg>