<?xml version="1.0" encoding="utf-8"?>
<!-- Generator: Adobe Illustrator 26.2.1, SVG Export Plug-In . SVG Version: 6.00 Build 0)  -->
<svg version="1.1" id="a" xmlns="http://www.w3.org/2000/svg"
	xmlns:xlink="http://www.w3.org/1999/xlink" x="0px" y="0px"
	viewBox="0 0 568.2 952.8" style="enable-background:new 0 0 568.2 952.8;" xml:space="preserve">
<style type="text/css">
	.st0{fill:url(#SVGID_1_);}
</style>
<linearGradient id="SVGID_1_" gradientUnits="userSpaceOnUse" x1="284.0978" y1="8.940697e-08" x2="284.0978" y2="952.84">
	<stop  offset="0" style="stop-color:#FFFFFF"/>
	<stop  offset="0.15" style="stop-color:#FFFFFF;stop-opacity:0.98"/>
	<stop  offset="0.34" style="stop-color:#FFFFFF;stop-opacity:0.92"/>
	<stop  offset="0.55" style="stop-color:#FFFFFF;stop-opacity:0.81"/>
	<stop  offset="0.77" style="stop-color:#FFFFFF;stop-opacity:0.67"/>
	<stop  offset="1" style="stop-color:#FFFFFF;stop-opacity:0.5"/>
</linearGradient>
<path class="st0" d="M151.7,135.6c-17.2,0-31.1,13.9-31.1,31.1s13.9,31.1,31.1,31.1s31.1-13.9,31.1-31.1S168.9,135.6,151.7,135.6z
	 M557.4,803.3L557.4,803.3L410.8,506.2V320.8c0-6.1-0.7-12-2-17.7h7.7c17.3,0,31.3-14,31.3-31.3s-14-31.3-31.3-31.3H152.8
	c-17.3,0-31.3,14-31.3,31.3s14,31.3,31.3,31.3h7.7c-1.3,5.7-2,11.6-2,17.7v185.4L10.6,805.9c-15.7,31.8-13.9,68.7,4.8,98.8
	c18.7,30.1,51,48.1,86.5,48.1h362.5c36.1,0,69-18.3,88-48.9S573.4,835.7,557.4,803.3z M464.5,890.1L464.5,890.1l-362.5,0
	c-29,0-48-30.5-35.1-56.5l152.7-309.4c1.1-2.2,1.7-4.7,1.7-7.2V320.8c0-9,7.3-16.2,16.2-16.2h94.4c9,0,16.2,7.3,16.2,16.2V517
	c0,2.5,0.6,5,1.7,7.2L501.2,831C514.7,858.3,494.8,890.1,464.5,890.1z M461.3,838l-62.8-127.3c-1.1-2.2-3.6-3.3-6-2.5
	c-28.4,9-51,9.1-66.8,7.4c-40.2-4.4-58.3-23.1-99-23.3c-20.8-0.1-38,4.7-49.7,9c-1.2,0.5-2.2,1.3-2.8,2.5L108,838
	c-5.5,11.2,2.6,24.3,15.1,24.3h323.1C458.7,862.3,466.8,849.2,461.3,838L461.3,838z M107.2,163.4c0-21.8,17.7-39.5,39.5-39.5
	c4.3,0,8.4,0.7,12.3,2c0.2-2.1,0.3-4.1,0.3-6.2c0-35.8-29-64.8-64.8-64.8s-64.8,29-64.8,64.8s29,64.8,64.8,64.8
	c6,0,11.9-0.8,17.4-2.4C108.8,176.5,107.2,170.1,107.2,163.4L107.2,163.4z M296.9,99.8c-26.6,0-48.2,21.6-48.2,48.3
	s21.6,48.2,48.2,48.2s48.2-21.6,48.2-48.2S323.6,99.8,296.9,99.8z M259.3,9.9c-3.3-3.3-7.1-5.8-11.2-7.4c-3.1-1.2-6.3-2-9.5-2.3
	c-0.5,0-1.1-0.1-1.6-0.1s-1.1,0-1.6,0c-1.1,0-2.2,0.1-3.2,0.2c-7.6,0.7-14.9,4-20.7,9.8c-13.2,13.2-13.2,34.6,0,47.9
	c2.9,2.9,6.2,5.2,9.7,6.8c1,0.5,2,0.9,3.1,1.2s2.1,0.7,3.1,0.9c7.4,1.8,15.3,1.1,22.3-2.2c3.5-1.6,6.8-3.9,9.7-6.8
	C272.5,44.6,272.5,23.1,259.3,9.9z"/>
</svg>