<?xml version="1.0" encoding="UTF-8"?>
<svg id="Layer_1" data-name="Layer 1" xmlns="http://www.w3.org/2000/svg" viewBox="0 0 360.08 360">
  <defs>
    <style>
      .cls-1 {
        fill: #231f20;
      }
    </style>
  </defs>
  <path class="cls-1" d="M335.04,360h-90c-10,0-19-6-23-15s-2-20,5-27l83-83v-39l-157,157c-5,5-11,7-18,7H25.04c-10,0-19-6-23-15s-2-20,5-27L275.04,50h-39L43.04,243c-7,7-18,9-27,5C6.04,244,.04,235,.04,225v-110c0-7,3-13,7-18l47-47h-30C11.04,50,.04,39,.04,25S11.04,0,25.04,0h90c10,0,19,6,23,15,4,9,2,20-5,27L50.04,125v39L207.04,7c5-4,11-7,18-7h110c10,0,19,6,23,15,4,9,2,20-5,27L85.04,310h39l193-193c7-7,18-9,27-5s15,13,15,23v110c0,7-3,13-7,18l-47,47h30c14,0,25,11,25,25s-11,25-25,25Z"/>
</svg>