<?xml version="1.0" encoding="UTF-8"?>
<svg id="a" xmlns="http://www.w3.org/2000/svg" viewBox="0 0 445 500">
    <defs>
        <style>.b{fill-rule:evenodd;}</style>
    </defs>
    <path class="b"
        d="M265.22,57.3l102.81,59.36c2.89-3.07,6.28-5.77,10.11-8,21.32-12.26,48.52-4.98,60.9,16.34,12.26,21.32,4.98,48.52-16.34,60.9-3.81,2.19-7.8,3.75-11.87,4.73v118.77c4.03,.98,7.98,2.53,11.75,4.7,21.45,12.39,28.73,39.58,16.34,60.9-12.26,21.32-39.58,28.6-60.9,16.34-4.25-2.44-7.93-5.48-11.02-8.95l-102.18,59c1.46,4.41,2.25,9.14,2.25,14.04,0,24.51-19.92,44.56-44.56,44.56s-44.56-19.92-44.56-44.56c0-4.38,.63-8.61,1.8-12.61l-102.78-59.34c-2.86,3.01-6.2,5.66-9.97,7.86-21.45,12.26-48.65,4.98-60.9-16.34-12.26-21.32-4.98-48.52,16.34-60.9,3.77-2.17,7.72-3.72,11.75-4.7v-118.76c-4.07-.97-8.07-2.54-11.87-4.73C.97,173.65-6.31,146.32,5.95,125c12.26-21.32,39.58-28.6,60.9-16.34,3.82,2.22,7.18,4.91,10.07,7.95l102.84-59.38c-1.19-4.02-1.82-8.27-1.82-12.67,0-24.64,19.92-44.56,44.56-44.56s44.56,19.92,44.56,44.56c0,4.43-.64,8.7-1.84,12.74Zm-10.71,18.29l103.06,59.5c-3.19,11.19-2.02,23.59,4.24,34.47,6.27,10.91,16.49,18.15,27.83,20.97v118.91c-.58,.14-1.15,.3-1.72,.46L253.31,76.78c.41-.39,.81-.78,1.2-1.19Zm-62.79,1.22L57.12,309.92c-.58-.17-1.17-.33-1.76-.47v-118.93c11.34-2.82,21.56-10.05,27.83-20.97,6.27-10.9,7.43-23.33,4.22-34.54l103.03-59.48c.42,.43,.84,.85,1.27,1.27Zm43.23,10.56l134.57,233.07c-3.01,2.87-5.67,6.22-7.84,10.01-2.17,3.77-3.72,7.72-4.7,11.75H88.02c-.98-4.02-2.53-7.98-4.7-11.75-2.19-3.77-4.84-7.09-7.83-9.95L210.08,87.38c3.94,1.14,8.1,1.75,12.41,1.75s8.5-.61,12.45-1.76Zm20.5,338.05l102.39-59.11c-.31-.96-.58-1.94-.82-2.92H87.97c-.14,.58-.3,1.15-.46,1.72l102.89,59.41c8.1-8.41,19.48-13.63,32.1-13.63s24.81,5.6,32.95,14.54Z" />
</svg>