<?xml version="1.0" encoding="UTF-8"?>
<svg id="a" xmlns="http://www.w3.org/2000/svg" viewBox="0 0 612 287.98">
    <defs>
        <style>.b{fill:#231f20;}</style>
    </defs>
    <path class="b"
        d="M334.72,44.93l-42.36,200.26c-5.99,26.1-16.26,39.37-41.08,39.37h-9.84c-23.11,0-35.09-14.12-29.1-40.65l8.56-41.08,17.97-83.87-48.35,89.01c-5.99,11.13-8.13,20.54-37.66,20.54-34.23,0-32.95-10.27-34.66-21.4l-11.13-82.16-16.69,77.88-8.99,42.36c-5.56,26.1-16.26,39.37-41.08,39.37h-9.84c-23.11,0-34.66-14.12-29.1-40.65L43.74,44.5C49.31,17.54,65.57,3.42,89.96,3.42h21.82c22.25,0,30.38,7.27,33.38,24.82l21.4,109.97L236.73,25.24c10.7-17.54,21.82-21.82,40.65-21.82h26.96c25.67,0,35.94,14.55,30.38,41.51Z" />
    <path class="b"
        d="M343.7,163.89C343.7,77.02,409.6,0,502.88,0c48.35,0,75.74,14.12,92,30.38,11.98,11.55,17.11,26.1,17.11,35.52,0,44.5-54.34,48.78-55.63,46.21-8.99-21.39-25.68-35.09-51.78-35.09-41.08,0-72.32,35.09-72.32,77.88,0,32.09,22.25,56.06,54.35,56.06,24.39,0,43.65-10.27,56.06-29.1,1.71-2.57,42.79,7.27,42.79,39.8,0,11.13-5.99,22.68-17.12,33.8-17.97,17.97-49.64,32.52-88.58,32.52-83.01,0-136.07-48.35-136.07-124.09Z" />
</svg>