<?xml version="1.0" encoding="UTF-8"?>
<svg id="Layer_1" data-name="Layer 1" xmlns="http://www.w3.org/2000/svg" viewBox="0 0 406.97 421.93">
  <path d="M180.86,218.53c7.17-15.92,16.08-35.73,5.8-83.27-1.99-9.18-6.76-14.52-14.6-16.31-17.18-3.94-41.26,8.97-46.46,13.58.05,1.04.13,2.36.21,3.87.64,10.76,1.82,30.78-1.39,53.77-2.3,16.42,2.72,32.44,13.76,43.96,8.68,9.06,20.1,14.07,31.83,14.11,1.35-5.54,3.52-11.36,5.86-17.63l.92-2.48c1.19-3.21,2.59-6.31,4.06-9.59ZM170.02,140.22c-.47,0-.95-.03-1.42-.1-3.29-.46-6.62-2.53-8.89-5.55-.8-1.07-2.11-3.13-1.85-5,.1-.71.46-1.73,1.63-2.62,2.08-1.57,6.18-2.16,10.72-1.52,5.56.77,11.3,3.41,10.75,7.36-.44,3.15-5.43,7.43-10.92,7.43Z"/>
  <path d="M112.09,188.44c3.04-21.76,1.9-40.98,1.29-51.31-.17-2.82-.29-4.87-.28-6.32-.09-3.75-.93-65.14,34.65-101.08.31-.31.63-.6.95-.91-21.68-7.07-75.64-21-108.46,2.28-20.17,14.3-29.42,40.92-27.51,79.1.6,12.08,8.24,55.14,21.31,97.96,15.11,49.49,32.24,80.7,47.01,85.63,2.27.75,9.16,3.05,19.14-8.94,14.1-16.97,27.35-31.4,33.45-37.93-1.53-1.31-3.01-2.7-4.43-4.18-13.7-14.29-19.93-34.08-17.1-54.31Z"/>
  <path d="M330.07,134.62c.9-5.85,1.75-11.45,1.85-17.62-24.62-3.06-34.43,2.62-38.29,8.14-12.98,18.55,12.37,64,23.19,83.41,2.78,4.99,4.79,8.59,5.72,10.83,1.02,2.48,2.14,4.73,3.3,6.78,7.44-15.84,5.52-31.9,3.65-47.49-.93-7.72-1.89-15.7-1.64-23.38.25-7.89,1.25-14.39,2.22-20.68ZM317.67,131.01c-1.2,1.26-3.73,3.45-7.17,3.92-.44.06-.88.09-1.32.09-5.16,0-9.52-4.12-9.86-6.53-.42-3.1,4.64-5.46,9.86-6.19,5.23-.73,10.74.16,11.17,3.25h0c.19,1.39-.86,3.53-2.69,5.45Z"/>
  <path d="M314.15,52.24c19.86,23.12,29.6,48.65,30.4,57.19.12,1.31.03,2.41-.21,3.34.31,8.9-.83,16.45-1.95,23.74-.91,5.92-1.86,12.04-2.08,19.18-.22,6.73.64,13.9,1.56,21.49,2.22,18.5,4.72,39.36-8.05,60.45.21.26.42.52.62.78.51.64,1.01,1.27,1.5,1.89,49.41-77.76,66.48-167.88,50.98-187.69-20.21-25.82-48.75-39.32-84.84-40.12-14.24-.32-26.96,1.48-36.27,3.41,21.63,9.54,37.47,23.69,48.33,36.33Z"/>
  <path d="M336.79,262.72c-.63-.42-1.21-.85-1.74-1.28-.85.3-1.74.54-2.64.8-5.76,1.62-11.2,3.14-10.49,17.76,1.52,1.24,7.96,3.25,20.61,2.65,11.46-.54,23.51-3.05,30.72-6.39,8.38-3.89,14.29-8.23,17.74-11.45-.09.02-.19.04-.28.06-25.6,5.29-43.74,4.56-53.91-2.15Z"/>
  <path d="M324.71,246.22c-3.99-4.99-9.46-11.83-13.69-22.07-.65-1.57-2.7-5.25-5.08-9.52-12.97-23.27-39.97-71.68-22.52-96.63,8.02-11.47,23.84-16.06,47.11-13.69-3.09-9.19-10.85-26.23-25.16-43.15-16.61-19.63-46.05-43.19-91.95-43.94-23.3-.38-42.42,6.77-56.78,21.25-22.8,23-28.9,59.35-30.51,78.8,1.06-.59,2.2-1.2,3.44-1.83,5.78-2.93,17.37-8.04,30.04-9.35,21.13-2.19,35.07,7.24,39.25,26.54,11.14,51.54.88,74.36-6.62,91.02-1.39,3.08-2.7,6-3.75,8.81l-.93,2.5c-2.21,5.93-4.25,11.41-5.43,16.26,5.52-1.41,10.12.49,12.62,1.53,6.3,2.61,11.55,8.91,13.71,16.44.35,1.23.61,2.45.77,3.66.19.63.29,1.29.27,1.98-1.45,51.75.59,98.61,4.75,109.01,6.44,16.1,16.21,30.18,43.81,24.26,26.62-5.71,36.09-15.29,40.52-41.02,3.36-19.47,9.98-74.59,10.91-86.36-1.15-23.46,11.5-28.15,18.55-30.19-.9-1.29-2.09-2.78-3.31-4.31Z"/>
  <path d="M189.97,264.25c-3.38-1.4-5.25-2.18-9.33,2.39,0,0,0,0,0,0-2.74,3.06-4.71,5.57-6.46,7.78-7.61,9.66-11.09,12.94-33.65,17.58-4.66.96-7.35,1.93-8.86,2.64,1.81,1.23,4.89,2.72,8.32,3.58,16.63,4.16,39.79,4.45,55.68-17.8,1.88-2.64,1.31-6.03.79-7.81-1.08-3.78-3.75-7.22-6.5-8.35Z"/>
  <path d="M406.53,258.21c-1.92-5.8-8.09-7.67-18.35-5.55-30.45,6.28-41.36,1.93-44.94-.71,23.67-36.06,43.15-79.65,53.65-120.32,4.98-19.27,7.73-37.16,7.95-51.74.25-16.01-2.48-27.77-8.1-34.95C374.07,15.97,340.8.44,300.53,0c-27.69-.31-51.08,6.77-55.61,8.77-9.55-2.38-19.96-3.83-31.29-4.02-20.78-.34-38.75,4.64-53.62,14.78-6.46-2.4-23.16-8.14-43.58-11.43-35.3-5.68-63.36-1.38-83.38,12.81C9.15,37.84-1.88,68.1.26,110.83c.72,14.38,8.91,58.61,21.84,100.98,17.02,55.76,35.52,87.32,54.98,93.81,2.28.76,4.91,1.29,7.8,1.29,7.1,0,15.81-3.2,24.86-14.09,15.05-18.1,29.09-33.27,34.27-38.78,7.65,4.11,16.06,6.4,24.66,6.63.01.23.04.45.06.67-1.73,2.05-3.14,3.84-4.35,5.37-5.96,7.56-7.2,9.14-26.37,13.08-5.45,1.12-19.94,4.11-20.15,14.27-.23,11.09,17.12,15.75,19.1,16.25,6.89,1.72,13.53,2.58,19.86,2.58,15.4,0,28.95-5.06,39.78-14.85-.33,39.56,1.32,78.53,6.06,90.41,3.89,9.72,13.39,33.48,43.41,33.48,4.4,0,9.25-.51,14.58-1.65,31.33-6.72,44.93-20.56,50.19-51.09,2.82-16.31,7.65-55.27,9.92-76.16,4.8,1.5,10.97,2.18,17.65,2.18,13.92,0,29.99-2.96,40.07-7.63,11.32-5.26,31.74-18.16,28.04-29.36ZM376.27,282.65c-10.39,4.83-28.07,7.61-41.59,7l-4.46-.39c-17.58-3.82-16.73-.36-19.56,23.24-2.08,85.52-24.87,94.72-54.68,101.11-35.67,7.64-40.2-19.05-44.04-29.41-3.84-10.36-5.1-27.94-5.86-46.77-.76-18.83-.4-45.19-5.72-49.45l.8-3.19c-19.96,27.94-49.5,23.42-62.27,20.22-10.53-2.63-26.66-12.71.8-18.37,27.14-5.59,23.15-8.25,36.72-23.42-.52-3.33-.64-6.14-.36-9.02l-.9.77c-11.6,1.12-22.67-2.01-31.91-8.15,0,0-18.61,19.58-37.87,42.75C52.68,352.92,8.5,143.2,6.9,111.27-.61-38.86,160.8,27.64,160.8,27.64c13.1-9.94,30.37-16.28,53.13-15.9,12.49.2,23.62,1.43,33.55,3.5l.48-.09c1.51-.82,91.99-32.4,144.26,34.39,19.16,24.49-3.04,124.52-56.15,203.32,0,0,3.46,17.03,53.76,6.65,22.05-4.55,8.79,12.77-13.57,23.15Z"/>
</svg>