<?xml version="1.0" encoding="UTF-8"?>
<svg id="a" xmlns="http://www.w3.org/2000/svg" viewBox="0 0 1713.15 502.55">
    <path
        d="M11.7,424.14c-5.46,0-9.94-4.36-10.07-9.85C-1.03,299.71-.4,202.28,3.28,160.04c.55-6.29,3.57-28.14,19.45-45.48,12.6-13.76,35.66-20.71,52.43-8.5,15.21,11.06,17.02,32.12,17.8,41.11,2.65,30.75,4.51,52.27,5.22,73.06,3.19-13.98,7.02-28.54,11.63-43.43,16.73-54.04,27.28-71.58,41.72-69.53,14.27,2.02,16.67,20.61,20,56.05,1.6,17.04,2.97,32.76,4.24,47.39,6.32,72.68,10.13,116.54,28.12,164.08,3.24,8.56,10.34,23.19,21.51,25.1,8.32,1.4,21.45-13.92,28.55-29.12,6.48-13.89,7.04-27.88,7.33-35.4,.21-5.3,.6-15.15,10.36-15.75,10.73-.7,11.86,8.59,14.1,27.04,1.27,10.49,4.45,36.72,8.96,45.22,6.54-5.85,17.43-26.01,21.27-33.12,7.09-13.12,11.77-21.81,21.42-17.01,5.32,2.63,6.88,7.79,4.63,15.31-1.05,3.51-2.63,8.81-1.99,15.29,.85,8.64,3.7,13.08,5.93,15.28,7.73,7.64,24.49,4.59,33.23,.88,1.19-.51,11.66-5.61,28.07-34.47-2.47-5.5-4.6-11.37-6.35-17.58-9.71-34.39-5.33-77.6,26.34-96.63,2.37-1.42,5.21-1.81,7.87-1.07,2.66,.73,4.9,2.53,6.21,4.96,15.5,29.01,11.73,66.15-11.21,110.46,9.82,16.78,24.62,29.7,42.77,29.7,.12,0,.24,0,.37,0,15.31-.15,39.03-35.46,47.96-48.75,11.29-16.81,21.17-35.12,29.3-54.15-3.28-22.66-4.76-47.15-6.3-72.84-4.7-77.86,3.15-187.24,19-203.9,2.64-2.78,6.08-4.17,9.54-4.25,2.72,.03,6.71,.98,10.27,5.33,13.81,16.87,26.32,116.06,7.8,212.99-4.16,21.78-10.79,43.8-19.47,65.08,5.95,36.45,17.38,66.83,43.21,87.22,23.25,18.35,55.43,26.8,93.06,24.5,5.5-.33,10.34,3.88,10.68,9.44,.34,5.55-3.88,10.34-9.44,10.68-42.66,2.63-79.59-7.32-106.79-28.8-23.82-18.81-37.07-43.52-44.91-72.44-5.86,11.22-12.28,22.07-19.21,32.38-18.66,27.78-40.57,57.44-64.5,57.67-.19,0-.38,0-.56,0-20.82,0-39.99-11.1-54.07-30.08-13.81,21.79-24.66,30.09-31.76,33.11-13.01,5.52-39.3,10.67-55.26-5.09-2.99-2.95-6.49-7.58-8.96-14.47-10.28,16.76-20.14,27.57-31.81,25.55-10.82-1.85-16.44-13.29-20.24-30.88-5.4,10.47-23.8,41.86-48.77,37.57-15.84-2.7-28.63-15.79-36.97-37.84-18.97-50.15-23.1-97.62-29.34-169.47-1.27-14.59-2.63-30.26-4.23-47.25-.71-7.52-2.08-22.22-3.92-31.7-3.81,7.12-9.81,21.24-18.48,49.24-22.99,74.25-26.01,140.29-27.14,165.15-.55,12.02-.95,20.74-10.9,20.74h-.28c-2.71-.05-5.38-1.23-7.24-3.2-2.3-2.43-4.11-4.35-5.55-34.3-.7-14.65-1.28-38.54-.07-69.2,1.49-37.73-.68-62.9-5-113.03-.84-9.73-2.68-21.53-9.57-26.54-7.21-5.25-19.34-1.15-25.71,5.82-11.59,12.66-13.82,28.93-14.23,33.61-3.62,41.56-4.23,138.14-1.58,252.04,.13,5.56-4.28,10.18-9.84,10.31-.08,0-.16,0-.24,0Zm416.55-159.05c-13.28,15.66-14.3,41.62-8.51,63.84,10.47-24.88,13.32-46.25,8.51-63.84ZM572.74,34.69c-6.55,31.85-12.65,101.95-8.41,172.26,.59,9.79,1.17,19.4,1.85,28.77,1.88-7.06,3.5-14.13,4.84-21.17,10.39-54.4,9.45-104.52,7.97-129.56-1.34-22.56-3.83-39.2-6.25-50.3Z" />
    <path
        d="M1458.84,502.55c-9.74,0-19-4.05-26.33-11.45-9.23-9.32-14.73-23.36-14.34-36.64,.64-21.48,12.52-40.04,22.06-54.95l46.97-73.36c-.82-7.55-1.74-14.71-2.73-21.3-.52,.95-1.06,1.89-1.61,2.83-7.1,12.08-16.12,22.78-26.82,31.84l-1.55,2.01c-9.65,12.54-14.58,18.95-24.13,18.95-.18,0-.36,0-.54,0-17.01-.42-27.45-23.02-33.21-41.9-4.41-14.45-4.62-25.42-4.76-32.68-.03-1.56-.06-3.34-.15-4.71-7.28,1.04-27.53,13.04-37.11,33.46-7.82,16.67-8.61,41.09-9.03,54.21-.1,3.1-.13,6.15-.15,8.49-.04,4.2-.14,14.04-10.01,14.24-.09,0-.18,0-.27,0-9.46,0-10.09-9.21-10.43-14.18-.21-3.08-.47-7.48-.77-12.79-.32-5.74-.69-12.56-1.07-19.9-.37,1.06-.74,2.11-1.13,3.17-4.57,12.55-15.15,27.03-28.49,31.09-7.34,2.23-14.79,.98-20.95-3.53-6.78-4.96-7.88-12.2-9.41-22.24-.4-2.63-.86-5.66-1.48-9.15-3.94-22.1-8.22-33.36-10.85-38.18-4,5.24-9.57,16.72-13.16,24.12-9.78,20.18-17.54,36.09-30.94,33.66-13.06-2.39-15.43-19.31-17.66-41.24-6.21,19.6-12.72,36.89-26.58,36.89h-.13c-10.35-.08-16.97-10.32-20.95-20.1-6.72,17.55-12.54,23.83-21.08,23.07-12.18-1.1-14.65-15.66-17.55-37.97-5.68,22.94-9.38,36.74-21.65,36.28-11.74-.37-15.13-13.32-18.79-37.07-.95,6.85-1.83,13.58-2.57,19.19-1.45,11.04-2.81,21.47-4.09,29.21-1.73,10.43-3.42,21.2-13.89,20.73-10.3-.48-11.17-11.44-12-22.04-.62-7.9-1.09-18.43-1.59-29.58-.04-.88-.08-1.79-.12-2.73-6.11,25.37-13.97,42.92-28.96,44.64-12.88,1.48-23.34-10.21-30.39-21.39-.81,1.13-1.67,2.24-2.6,3.31-12.6,14.73-37.32,24.66-55.27,15.03-6.3-3.38-10.88-8.84-14.2-15.47-3.67,6.75-8.44,12.97-14.6,18.13-19.19,16.07-44.44,15.74-57.78,14.13-15.1-1.82-37.43-8.85-58.05-31.99-39.6-44.44-29.38-124.07-3.13-179.24,25.86-54.35,69.42-85.64,101.41-102.31,4.93-2.58,11.02-.66,13.6,4.28s.66,11.02-4.28,13.6c-29.26,15.25-69.07,43.79-92.53,93.1-19.6,41.19-35.78,117.04-.02,157.17,16.43,18.44,33.77,23.98,45.43,25.39,8.14,.99,28.57,2.02,42.42-9.57,14.28-11.96,18.27-34.62,19.24-52.06,.02-4.3,.14-8.34,.28-11.94-.02-2.94-.09-5.47-.15-7.41-.19-6.49-.28-9.74,3.07-13.06,1.98-1.97,4.76-3,7.53-2.94,2.68,.1,5.31,1.32,7.13,3.29,3.27,3.55,3.15,6.62,2.73,16.79-.04,.99-.09,2.13-.13,3.4,.03,3.74,0,8.03-.24,12.66,.03,17.57,1.85,40.93,11.83,46.29,7.44,4,22.52-1.14,30.42-10.37,3.4-3.97,5.58-8.93,6.9-14.21-6.24-21.3-4.68-43.08-1.49-48.42,1.76-2.95,5.04-4.93,8.47-5.04,1.58-.07,6.92,.24,9.8,6.22,1.61,3.36,7.52,24.66,4.04,46.14,.77,2.07,1.66,4.14,2.67,6.18,5.96,11.99,12.81,19.37,15.58,20.22,7.59-4.35,14.88-43.43,17.29-56.38,4.54-24.33,6.58-35.49,18.1-34.68,8.51,.56,11.81,7.31,13.7,26.05,3.98-22.11,7.97-28.85,17.01-28.78,11.86,.16,13.7,12.77,17.74,40.41,.54,3.67,1.19,8.16,1.92,12.67,.46-1.84,.9-3.59,1.28-5.15,5.77-23.35,9.29-37.46,21.5-36.76,12.19,.69,14,14.73,16.99,37.99,.4,3.08,.89,6.9,1.45,10.7,3.93-11.06,7.97-25.16,9.98-32.17,1.19-4.17,2.21-7.71,2.99-10.21,2.71-8.67,7.31-12.19,13.72-10.51,3.53,.93,9.15,4.07,6.89,14.66-1.01,4.75-3.38,15.87-1,28.16,1.36,7.03,3.89,13.56,6.02,17.45,3.2-6.17,6.89-17.99,9.09-25.03,6.03-19.31,10.01-32.04,21.85-30.85,11.96,1.23,13.35,15.18,15.47,36.29,.55,5.56,1.41,14.12,2.57,20.61,2.75-4.89,5.83-11.24,8.21-16.13,10.36-21.38,19.32-39.83,34.32-37.36,8.43,1.39,19.19,9.09,27.66,56.66,.66,3.7,1.14,6.9,1.57,9.67,.56,3.66,1.18,7.79,1.77,9.26,.89,.54,1.65,.6,2.8,.25,5.25-1.59,12.31-10.16,15.42-18.7,11.72-32.18,14.22-65.08,15.04-75.89,.28-3.74,.95-12.48,9.97-12.88,9.89-.32,10.64,9.15,11.03,14.84,.24,3.51,.54,8.51,.88,14.48,.28,4.98,.59,10.64,.91,16.67,11.3-18.35,29.33-31.58,42.95-35.71,9.79-2.97,16.16-.98,19.79,1.21,8.35,5.05,8.51,13.94,8.66,21.79,.13,6.87,.3,15.42,3.88,27.18,4.87,15.96,10.82,25.18,13.91,27.27,1.62-1.57,4.43-5.16,7.49-9.14-4.46-12.5-6.79-25.33-6.93-38.24-.17-14.89-.35-31.76,11.91-46.06,8.54-9.96,26.54-22.08,41.11-14.63,11.16,5.71,14.27,20.27,13.57,34.62,2.35,7.3,4.9,18.94,7.17,33.23l29.42-45.95c9.76-15.24,28.36-32.13,46.14-33.19,9.16-.58,17.19,2.97,23.12,10.18,10.87,13.19,5.48,36.7,5.43,36.93-5.3,22.42-20.8,39.42-37.93,52.17,12.37-5.38,25.42-12.53,37.87-21.93,68.57-51.79,82.58-145.01,84.83-195.96,.25-5.56,4.95-9.83,10.51-9.62,5.56,.25,9.87,4.95,9.63,10.51-2.4,54.49-17.66,154.39-92.82,211.15-41.56,31.39-92.27,41.98-110.37,40.64,2.8,48.53-.36,102.58-18.94,129.33-8.08,11.63-18.96,18.04-31.47,18.53-.23,0-.47,0-.7,0Zm31-143.13l-32.63,50.96c-8.63,13.48-18.42,28.77-18.89,44.67-.23,7.83,3.11,16.41,8.51,21.86,2.53,2.56,6.61,5.48,12.11,5.48,3.7-.15,9.58-1.34,15.51-9.89,14.83-21.34,17.62-68.89,15.39-113.09Zm18.25-28.5c0,.1,.02,.2,.03,.31,2.19-1.13,4.6-2.24,7.12-3.41,21.16-9.77,65.19-30.11,73.37-64.74,1.12-4.76,1.47-16.05-1.36-19.49-1.81-2.2-3.66-3.03-6.36-2.87-8.62,.52-22.25,11.26-30.37,23.94l-42.42,66.25Zm-34.64-81.2c-2.88,0-10.41,3.54-15.88,9.92-7.33,8.54-7.2,19.74-7.05,32.72,.07,6.31,.78,12.62,2.11,18.86,4.49-5.61,8.02-9.88,10.75-13.2,2.34-2.84,4.09-4.96,5.42-6.66,3.11-6.21,5.59-12.71,7.41-19.43,1.62-11.32,.08-20.64-2.04-22.12-.19-.07-.43-.1-.72-.1Zm-80.06,31.47h0Z" />
    <path
        d="M274.44,304.28c-8.62,0-15.63-7.01-15.63-15.63s7.01-15.63,15.63-15.63,15.63,7.01,15.63,15.63-7.01,15.63-15.63,15.63Z" />
    <path
        d="M1326.96,243.34c-6.26,0-11.36-5.09-11.36-11.36s5.09-11.36,11.36-11.36,11.35,5.09,11.35,11.36-5.09,11.36-11.35,11.36Z" />
</svg>