<?xml version="1.0" encoding="UTF-8"?>
<svg id="a" xmlns="http://www.w3.org/2000/svg" viewBox="0 0 500 500">
    <path
        d="M250,0H0V500H500V0H250Zm36.6,272.13h-65.08v184.92h-46.03v-184.92H110.41l.16-20.48,.24-20.4,87.38-.24c48.02-.08,87.62,.08,87.86,.4,.32,.24,.56,9.52,.56,20.64v20.08Zm170.02,146.88c-7.94,20.79-27.62,34.92-55.32,39.6-8.57,1.51-28.89,1.27-38.1-.4-20.08-3.57-39.13-13.49-50.87-26.51-4.6-5.08-13.57-18.33-13.02-19.29,.24-.32,2.3-1.59,4.6-2.94,2.22-1.27,10.63-6.11,18.57-10.71l14.37-8.33,3.02,4.44c4.21,6.43,13.41,15.24,18.97,18.17,15.95,8.41,37.86,7.22,48.65-2.46,4.6-4.21,6.51-8.57,6.51-15,0-5.79-.71-8.33-3.73-12.7-3.89-5.56-11.83-10.24-34.37-20-25.79-11.11-36.9-18.02-47.06-28.97-5.87-6.35-11.43-16.51-13.73-25-1.9-7.06-2.38-24.76-.87-31.9,5.32-24.92,24.13-42.3,51.27-47.46,8.81-1.67,29.29-1.03,37.94,1.11,12.7,3.17,22.38,8.81,31.27,18.02,4.6,4.92,11.43,13.89,11.98,16.03,.16,.63-21.59,15.24-34.76,23.41-.48,.32-2.38-1.75-4.52-4.92-6.43-9.37-13.17-13.41-23.49-14.13-15.16-1.03-24.92,6.9-24.84,20.16,0,3.89,.56,6.19,2.14,9.37,3.33,6.9,9.52,11.03,28.97,19.44,35.79,15.4,51.11,25.56,60.63,40,10.63,16.11,13.02,41.83,5.79,60.95Z" />
</svg>